<svg xmlns="http://www.w3.org/2000/svg" viewBox="0 0 50 50" enable-background="new 0 0 50 50"><path fill="#fff" d="m25 0c-13.809 0-25 11.191-25 24.999 0 13.81 11.192 25 25 25 13.808 0 24.999-11.191 24.999-25 0-13.808-11.191-24.999-24.999-24.999m12.499 35.09c0 .918-.746 1.666-1.667 1.666h-21.666c-.921 0-1.667-.748-1.667-1.666v-1.668c0-.922.746-1.667 1.667-1.667h21.666c.921 0 1.667.745 1.667 1.667v1.668m0-9.169c0 .923-.746 1.669-1.667 1.669h-21.666c-.921 0-1.667-.746-1.667-1.669v-1.665c0-.922.746-1.67 1.667-1.67h21.666c.921 0 1.667.748 1.667 1.67v1.665m0-9.167c0 .922-.746 1.668-1.667 1.668h-21.666c-.921 0-1.667-.746-1.667-1.668v-1.667c0-.919.746-1.666 1.667-1.666h21.666c.921 0 1.667.746 1.667 1.666v1.667"/></svg>