<svg xmlns="http://www.w3.org/2000/svg" width="767.84" height="761.09" viewBox="0 0 767.838 761.092" enable-background="new 0 0 767.838 761.092"><g fill="#544b57"><path d="m750.85 467.59c-4.739-1.212-4.161-7.491-8.144-9.725-4.856-4.986-2.203-12.1-4.758-18.01-2.406-9.521-5.559-18.935-9.793-27.779-.992-2.02-2.697-.616-3.614.609-5.811-8.267-12.478-16.27-21.729-20.793-3.164-3.909-8.113-5.786-11.02-9.917-6.796-3.435-12.804-8.636-17.11-14.927-1.243-3.995 4.642-5.564 4.03-9.522-.635-4.61-5.251-6.747-8.212-9.75-2.77-1.318-5.171 1.458-7.83.609-8.321-1.822-16.231-7.64-18.307-16.215-.522-2.727-4.728-2.529-4.02-5.859-.856-6.106-5.072-11.135-5.511-17.297-2.622-3.084-4.04-6.777-5.54-10.446-4.646-3.569-8.08-8.407-12.729-11.917-3.054-3.552-7.941-5.127-10.311-9.308-3.337-5.977-10.815-7.151-15.709-11.374-6.98-5.51-15.487-8.366-23.767-11.309-5.146 3.755-5.805-5.066-11.12-4.259-11.862-2.143-21.821-9.246-33.25-12.342-6.131-.554-10.933-5.547-12.06-11.419-1.934-4.715-6.741-6.703-11.06-8.581-2.715-4.788-5.892-9.343-8.507-14.163.055-5.344-4.161-8.913-6.697-13.12 5.065-1.226 8.261 3.465 12.933 3.416 1.49.732 2.819 1.748 4.352 2.475 1.509-1.262 3.804-2.985 3.02-5.214-2.456-9.258-6.402-18.17-7.774-27.688.936-.339 2.234-.086 2.825-1.083 5.417-11.529 6-24.512 7.257-36.982 2.204-18.08-2.616-35.93-7.965-53.01-4.444-4.5-10.551-6.716-16.349-8.938 3.73-3.812 5.922-8.644 4.426-13.962 6.666-2.056 13.05 3.146 18.965 5.04 2.746-2.542.432-7.325-2.277-8.969-5.393-2.684-11.672-4.974-14.786-10.514-5.244-4.297-11.633-8.261-18.613-8.482-7.07 2.327-12.472 8.384-16.17 14.595.179 5.387-3.404 11.12-1.053 16.177-4.29 6.457-12.809 6.593-19.519 8.821-2.186 1.501-7.085 4.296-4.04 7.251-8.396 8.495-8.63 21.348-9.08 32.575 1.569 15.567 5.595 31.04 12.927 44.947 3.606 6.912 6.543 14.822 12.944 19.686 1.711 1.631 4.488-2.063 5.577.591 3.798 7.109 13.616 12.378 12.08 21.384-1.952 6.802-11.07 4.124-16.06 3.429-4.917-2.229-11.658-3.281-15.04 1.804-6.876 2.01-14.429.56-21.335-.991-4.739-1.489-9.03 2.443-13.795 1.502-6-5.38 1.416-14.872-5.164-20.1-3.607-7.01-12.379-3.361-17.925-1.188-4.376-1.692-9.929-3.41-11.973-8.08 5.669-1.502 8.827-8.827 5.547-13.813-.764-5.256-6.593-3.176-10.397-3.754-2.234-3.521-.96-9.289-5.503-11.179-2.905-1.514-4.851-.302-4.309 2.911-1.576.887-3.503 1.022-4.69-.517-6.777.924-4.728 9.01-6.334 13.844 1.027 7.743-.794 16.361 3.459 23.379 2.573 3.896 2.321 9.129 6.248 12.206 2.395 2.807 5.762 4.616 8.05 7.522-.806 1.126-2.062 1.778-3.12 2.615.849 4.229 7.03.493 8.513 4.74-1.89 4.832 4.863 8.729 8.999 10.09 4.094.135 8.434-.173 11.21 3.465 10.458 2.413 21.643 5.854 32.39 2.82 6.802-.505 13.659-.395 20.467-.918 1.299 2.087 2.389 4.297 3.509 6.494 3.053 3.306 8 3.22 11.695 5.491 3.318.591 5.189-3.859 8.79-3.152 8.439 4.297 16.892 8.883 26.03 11.474 3.858 1.317 4.721 5.448 7.226 8.132 6.66 4.979 14.583 8.181 21.28 13.155 10.439 4.635 20.719 9.325 31.32 13.609 9.732 2.997 17.354 9.535 25.65 15.02 8.827 2.753 17.09 7.979 22.714 15.426 7.793 8.305 14.73 17.919 17.66 29.08 1.047 8.445 7.929 15.5 5.934 24.271 4.198 3.705 9.05 7.38 12.804 11.868 3.466 4 9.03 5.681 11.382 10.723 3.146 2.646 6.839 5.084 9.78 7.817-.658 2.887 2.949.271 3.983 2.443 6.155 5.693 11.122 13.535 19.364 16.404 4.992 6.248 13.211 8.181 19.1 13.438 8.119 3.207 7.675 12.508 9.399 19.71 5.946 19.19 12.538 39.41 27.779 53.34 2.856 4.03 6.919 7.115 11.08 9.866 6.088 9.153 4.426 20.905 8.477 30.89 2.985 8.599 2.88 18.2 7.663 26.15 3.626 8.692 7.884 17.03 12.227 25.362v-103.45c-5.588-6.443-8.216-15.822-16.991-18.663m-278.15-259.78c-1.699-1.854-.844-5.122-.025-7.295 3.521.621 4.08 7.959.025 7.295"/><path d="m757.65 692.31c-6.153-2.553-10.419-6.713-13.203-9.713h.479c-1.402-3-3.039-4.752-4.809-6.881l-.002-.119h-.002c-5.141-6-11.419-11.469-16.474-17.76-7.344-7.357-13.425-16.57-22.437-21.858-6.74-7.779-12.896-16.239-21.273-22.407-5.152-4.296-11.11-7.658-15.604-12.67-21.723-10.82-46.02-17.11-64.83-33.08-18.13-18.479-33.12-39.8-46.28-62.04-2.24-3.613-4.334-7.411-7.504-10.268-2.554-3.49.352 4.181-2.222 2.74-3.798-6.481-7.387-13.01-11.339-19.402l3.121-.234c-8.938-12.575-20.935-22.442-31.405-33.64-1.563-3.834-3.041-8.943-.086-12.415-3.952-12.157 7.04-24.271 1.926-36.24-1.058-2.998-5.103-2.519-6.42-5.257-.77-1.317-.431-3.891-2.561-3.54-.228 2.53.356 4.992 1 7.411-3.965 5.78-5.091 13.05-9.93 18.399-1.963 4.235-6.862 1.489-9.146 5.171-14.03-14.355-27.792-29.12-39.776-45.25-.721-3.645 5.625-6.962 1.379-10.262-.524 1.76-2.241 2.918-4 3.177 1.102-9.425-1.552-18.786-.722-28.27-1.348-1.447-5.638-1.059-3.612 1.668-3.921-3.053.997 3.108-.979 5.183-2.161 2.728-1.675 7.258-3.786 9.572-3.392-4.869-5.995-10.292-10.02-14.718-3.84-3.779-3.977-9.486-6.321-14.08-1.483-.442-2.37 1.158-3.527 1.767-7.393-5.214-11.738-13.186-18.275-19.267-5.736-6.956-14.13-10.865-20.664-16.878-4.69-5.146-10.667-8.55-16.848-11.511-9.473-7.769-19.2-15.327-30.19-20.824-4.771-.578-1.797-9.677-8.07-7.799-2.186 2.043-5.94 1.797-7.651-.695 4.297-4.636 10.729-7.56 12.521-14.195-3.915 4.475-8.305 7.972-14.183 9.406 2.905 5.44-5.441 8.654-9.258 5.903 2.518-4.857 5.164-10.07 4.875-15.74-1.964-1.644-4.666-2.01-7.091-2.333-1.57.536-3.078 2.949-4.593 1.163-.99.808-1.379 2.327-2.948 1.89-.222 2.919-4.05 3.762-2.555 6.882-3.619.007-7.288-.258-10.87.346-3.213-.407-4.697-3.891-7.608-4.999-5.848-2.622-11.153-6.18-16.903-8.962-.19-2.69-3.311-7.258 1.435-5.331.941-8.882-6.407-16.571-8.581-25.1 3.257-6.315 3.866-13.732 5.257-20.615 2.961-16.718 4.045-33.72 4.094-50.671 1.778-1.57 2.733-3.848 2.382-6.291.229-13.352-1.655-27.25-8.371-38.996-1.834-3.933-7.141-5.799-6.685-10.723-3.257-.468-5.577-.425-3.349-3.773-4.303-.973-8.643-.554-12.865.487 1.169-2.426-1.047-4.297-3.688-3.806-3.373-2.874-8.285-3.083-12.391-4.622-8.095 2.813-17.11 1.2-24.825 5.275-1.569.732-.529 2.376-.449 3.644-4.03-.363-8.199-.8-12.11.42-1.342.325-.326 1.655-.295 2.554-6.599-.356-11.77 5.922-12.847 12-5.65 14.719-2.16 31.701 3.392 45.35-1.582 3.083 4.063.603 1.545 5.121-.043 2.173-1.625 4.377-.443 6.488 1.071.313 2.444.35 2.709 1.704 4.444 16.842 9.615 33.727 18.02 49.06 2.942 5.288 7.06 10.748 11.763 13.961-3.546-1.108-3.459 2.204-5.091 3.81-5.361-1.495-11.147-1.976-16.06-4.69-2.555-1.28 1.982-3.495-.572-4.955-3.02-1.36-7.202-4.795-10.224-1.847-1.275.819-.179 2.42-.223 3.614-9.59-1.028-18.355-7.621-27.767-7.855-2.967-1.877.239-4.456-.998-6.919 2.672.998 5.214 2.377 7.996 3.078-1.687-4.087-.517-7.99 1.761-11.597.585.351 1.151.758 1.761 1.102.449-5.164 3.841-9.56 3.761-14.804.345-10.772-.117-21.544-.837-32.29-1.828-4.598 2.609-6.888 2.216-11.431-2.074 3.349-2.536-4.333-2.45-5.121.536 1.588.973 3.213 1.601 4.777-.08-6.452-2.21-12.675-2.154-19.13-.197-7.442 1.09-14.964-1.182-22.21 6.451-2.684 1.403-9.419-1.028-13.486-1.569-1.786 2.038.462 1.472-.869-1.496-3.563-3.632-6.813-4-10.803-2.991-4.401-5.539-9.837-10.796-11.941-5.257-11.486-20.265-11.165-29.18-18.19.948.08 1.891.196 2.851.259-4.475-1.872-8.673-4.839-13.721-4.765-2.074-.338-4.58-.252-6.03-2.01-1.151-2.647-1.323-6.02-3.73-7.905-.818-.381.166-.8.431-1.193-2.807-1.742-5.392-3.908-8.574-4.943-2.093-.898-4.845-2.721-6.759-.757-.979-2.462-2.524-.382-4.136-1.133-8.532-5.071-17.328 2.783-21.692 9.837-3.133 6.229-8.796 10.525-13.973 14.981-2.05 2.082-2.099 6.03-.099 8.156 3.749-3.465 10.39-6.087 15.863-7.104.991 2.174 1.169 5.271 3.915 6.04 2.364.363-.326 3.416.037 4.499-1.656 2.696.591 6.02-1.268 8.588-.554 1.059 1.81-.621 1.736.56.412 2.549 2.326 4.37 3.176 6.716 2.204 15.795-.788 35.684 13.721 46.5 7.836 19.537 15.604 40.09 29.928 55.683 4.567.844 2.881 6.383.529 8.04-6.642 1.053-8.79-5.441-11.83-9.75-2.321-.721-4.408.209-6.5.954-6.956-7.498-13.672-15.401-18.658-24.364-3.472-5.447-8.938-9.405-11.572-15.438-6.925-13.536-16.473-25.514-27.05-36.39-2.628-2.653-4.771-7.228-9.338-4.889-2.308.844-2.561-2.634-4.666-2.443-.479 1.396-.866 2.96-1.279 4.412 6.851 8.471 14.189 16.94 20.418 25.952-.548 3.681 3.287 5.86 5.491 8.181 11.529 13.438 22.579 27.423 31.984 42.498 2.555 2.603 6.673 5.03 6.137 9.257-1.36 2.371-.049 5.239 1.274 7.363 6.851 1.101 9.05 8.524 14.317 12.13 1.231 3.286.431 9.215 5.195 9.726-.542-1.841-3.078-5.201-1.28-6.224 6.771 4.297 12.625 11.03 20.15 14.33 1 3.188 1.268 6.666 2.695 9.726 3.577-.56-1.286-5.626 2-7.903 8.267-1.785 13.579 6.37 21.22 7.374 6.777 1.755 14.11 1.348 20.535 4.524 6.869 1.397 13.678 3.256 19.833 6.716 5.577-.899 9.06 4.241 14.274 4.906 2.733 2.782.898 9.897 5.688 10.938-.763-2.01-1.767-3.977-1.908-6.155 2.733.855 5.473 2.327 8.409 2.068 5.805-1.194 11.02 2.246 16.749 2.376 3.982.13 2.801 6.075 7.01 6.438 3.459.739 2.167 4.389 2.573 6.986.893-1.354 1.434-2.887 1.976-4.401 2.167.695 4.167 1.97 6.507 2.105 4.216.529 6.254 4.863 9.978 6.408 4.728 2.271 9.141 5.257 12.816 9.02-1.367.671-5.866 1.177-3.571 3.269 2.26-.024 4.322-1.139 6.525-1.539 3 2.494 6.088 4.882 9.221 7.228.604 1.261-.973 1.053-1.724 1.379.24 2.228 2.992 2.523 4.722 3.059 6.611.653 13.493-.135 19.833 2.321 5.06 2.566 10.803.049 16.16 1.89-.973.929-4.937 3.2-1.982 3.688 3.343 1.686 3.478-4.993 7.178-2.881 7.521 3.237 16.429 6.234 20.497 13.979 8.981 7.806 19.477 13.961 27.331 23.06 4.604 4.851 11.02 8.242 14.632 13.875-4.106-1.521-6.42-5.897-10.582-7.474-2.671-1.97-3.28 2.413-4.795 3.724-6.74-5.194-13.369-10.543-20.14-15.671-1.096-1.188-2.856.493-1.595 1.563 4.168 5.128 10.588 7.812 15.291 12.434 13.406 9.855 22.375 24.03 32.876 36.681 5.75 6.71 8.648 15.278 14.15 22.16 2.825 3.429 4.617 7.528 6.255 11.628 11.09 20.288 28.869 35.794 47.22 49.37 1.575 3.891 5.854 5.115 8.845 7.75 6.476 3.951 12.472 9.239 15.9 16.189 7.04 9.269 16.373 16.515 23.495 25.674 1.748 5.879 7.737 8.439 10.514 13.585 15.561 21.956 22.504 48.727 36.89 71.4 1.76 1.921 2.721.124 1.791-1.785 4.888 5.03 9.677 10.176 14.762 14.977-5.946-3.705-11.425-8.507-17.926-11.326-1.821 3.01 1.564 3.866 3.035 5.128 13.979 9.449 28.66 17.766 43.19 26.309 14.526 9.436 31.952 12.422 47.12 20.559 1.409 4.309 6.998 4.814 9.621 8.262 6.29 5.361 7.7 14.1 13.283 19.968 1.477 1.798-.973-3.02 1.28-2.492 2.911.91 1.65 4.807 3.762 6.616 2.695 5.251 9.879 2.961 12.482 8.508 1.829 3.563 5.799 5.619 7.405 8.839 0 0 6.942 11.455 16.18 19.766 9.232 8.31 14.771 12 27.698 22.16 11.253 8.842 21.33 21.15 36.962 28.476v-56.05c-2.823-1.377-6.143-2.817-10.186-4.494m-615.64-621.18c1.392 1.324 2.856 5.184.715 6.267-.838-1.976-.739-4.168-.715-6.267m-7.817 103.7c2.499-1.256.068 3.934 2 5.02 1.762 6.01-1.402 1.201-1.705-.258-.59-1.379-3.219-4.395-.295-4.764m-59.899-18.15c1.422.905 3.398 2.074 3.773 3.804-1.588-.905-3.36-1.866-3.773-3.804m168.91 69.778c.85-.406 2.154.702 1.981 1.588-.867.394-2.166-.714-1.981-1.588m48.26 23.821c-1.563-.424-5.416.709-4.819-1.796.308-2.383 2.376-4.329 4.475-5.344 2.184.431 1.199 5.276.344 7.14m85.58 86.88c2.845-.886 3.977 2.321 5.115 4.284-1.932-1.131-3.779-2.48-5.115-4.284"/></g></svg>